<svg width="43px" height="37px" viewBox="0 0 43 37" xmlns="http://www.w3.org/2000/svg">
    <path d="M21.5,0 L0,19.5882353 L6.45,19.5882353 L6.45,37 L36.55,37 L36.55,19.5882353 L43,19.5882353 L21.5,0 M21.5,12.5147059 C24.1716775,12.5147059 26.3375,14.7071938 26.3375,17.4117647 C26.3375,20.1163356 24.1716775,22.3088235 21.5,22.3088235 C18.8283225,22.3088235 16.6625,20.1163356 16.6625,17.4117647 C16.6625,14.7071938 18.8283225,12.5147059 21.5,12.5147059 M21.5,26.1176471 C24.725,26.1176471 31.175,27.75 31.175,31.0147059 L31.175,32.6470588 L11.825,32.6470588 L11.825,31.0147059 C11.825,27.75 18.275,26.1176471 21.5,26.1176471 Z" id="Shape"></path>
</svg>