
<svg width="76px" height="50px" viewBox="0 0 76 50" version="1.1" xmlns="http://www.w3.org/2000/svg" xmlns:xlink="http://www.w3.org/1999/xlink">
    <path d="M52.138694,10.0255561 L61.9363966,23.1144766 L68.4681983,23.1144766 C72.0933482,23.1144766 75,26.0267614 75,29.6589369 L75,39.4756273 L68.4681983,39.4756273 C68.4681983,44.8972357 64.0816174,49.2923176 58.6704957,49.2923176 C53.259374,49.2923176 48.8727931,44.8972357 48.8727931,39.4756273 L29.277388,39.4756273 C29.277388,44.8972357 24.8908071,49.2923176 19.4796854,49.2923176 C14.0685637,49.2923176 9.68198279,44.8972357 9.68198279,39.4756273 L3.15018107,39.4756273 L3.15018107,29.6589369 C3.15018107,26.0267614 6.05683284,23.1144766 9.68198279,23.1144766 L19.4796854,10.0255561 L52.138694,10.0255561 M34.1762392,14.9339013 L21.929111,14.9339013 L15.7565584,23.1144766 L34.1762392,23.1144766 L34.1762392,14.9339013 M39.0750905,14.9339013 L39.0750905,23.1144766 L55.861821,23.1144766 L49.6892683,14.9339013 L39.0750905,14.9339013 M19.4796854,34.5672821 C16.7741245,34.5672821 14.5808341,36.7648231 14.5808341,39.4756273 C14.5808341,42.1864315 16.7741245,44.3839724 19.4796854,44.3839724 C22.1852462,44.3839724 24.3785367,42.1864315 24.3785367,39.4756273 C24.3785367,36.7648231 22.1852462,34.5672821 19.4796854,34.5672821 M58.6704957,34.5672821 C55.9649348,34.5672821 53.7716444,36.7648231 53.7716444,39.4756273 C53.7716444,42.1864315 55.9649348,44.3839724 58.6704957,44.3839724 C61.3760566,44.3839724 63.569347,42.1864315 63.569347,39.4756273 C63.569347,36.7648231 61.3760566,34.5672821 58.6704957,34.5672821 Z" id="Shape"></path>
    <polygon id="Rectangle" transform="translate(11.954363, 8.487927) rotate(45.000000) translate(-11.954363, -8.487927) " points="1.95124526 6.4873032 21.9574804 6.4873032 21.9574804 10.4885502 1.95124526 10.4885502"></polygon>
    <polygon id="Rectangle-Copy-5" transform="translate(4.268006, 4.318677) rotate(-44.000000) translate(-4.268006, -4.318677) " points="0.26675908 2.31805359 8.26925313 2.31805359 8.26925313 6.31930062 0.26675908 6.31930062"></polygon>
</svg>