<svg width="24" height="24" viewBox="0 0 24 24" xmlns="http://www.w3.org/2000/svg" xmlns:bx="https://boxy-svg.com">
    <path fill="none" d="M0 0h24v24H0V0zm0 0h24v24H0V0z"/>
    <path d="M12 2C6.48 2 2 6.48 2 12s4.48 10 10 10 10-4.48 10-10S17.52 2 12 2zm0 18c-4.42 0-8-3.58-8-8s3.58-8 8-8 8 3.58 8 8-3.58 8-8 8z"/>
    <path d="M 489.78 495.08 m -10 0 a 10 9.968 0 1 0 20 0 a 10 9.968 0 1 0 -20 0 Z M 489.78 495.08 m -8.5 0 a 8.5 8.473 0 0 1 17 0 a 8.5 8.473 0 0 1 -17 0 Z" transform="matrix(0.999999, -0.001222, 0.001222, 0.999999, -478.396797, -482.500924)" bx:shape="ring 489.78 495.08 8.5 8.473 10 9.968 1@8dd07a83"></path>
</svg>